# xmcd
#
# Track frame offsets:
#	175
#	15315
#	29500
#	45905
#	57842
#	74927
#	88520
#	101990
#	116862
#	129860
#	141785
#	155555
#
# Disc length: 2299 seconds
#
# Revision: 0
# Processed by: cddbd v1.4PL0 Copyright (c) Steve Scherf et al.
# Submitted via: audiograbber 1.81.03
#
DISCID=a408f90c
DTITLE=Don LeBlanc - Country
DYEAR=1900
DGENRE=
TTITLE0=Love Gives You a Reason
TTITLE1=I'm So Lonesome I'm Cryin'
TTITLE2=Hypnotic Eyes
TTITLE3=I'll Keep Fallin In Love
TTITLE4=Staying Together Living Apart
TTITLE5=I Had A Feeling
TTITLE6=Today Is My Birthday
TTITLE7=Daddy's Hand Dance
TTITLE8=I Must Be A Mushroom
TTITLE9=In The Movies
TTITLE10=Toby Bill
TTITLE11=You'll Drive Your Friends Away
EXTD=
EXTT0=
EXTT1=
EXTT2=
EXTT3=
EXTT4=
EXTT5=
EXTT6=
EXTT7=
EXTT8=
EXTT9=
EXTT10=
EXTT11=
PLAYORDER=
